<svg width="100" height="91" viewBox="0 0 100 91" fill="none" xmlns="http://www.w3.org/2000/svg">
<path d="M90.4007 18.7908H89.5448C89.5711 18.7695 95.04 14.3568 95.0646 14.3341C99.0003 11.0176 98.9544 5.7515 94.9176 2.48181C90.7716 -0.876414 84.1522 -0.751969 80.2326 2.40359L60.0718 18.7908H9.59972C4.30615 18.7908 0 22.2788 0 26.5666V64.1746C0 68.4626 4.30615 71.9504 9.59972 71.9504H38.3769L37.1259 85.3334H31.5424C29.7251 85.3334 28.2502 86.528 28.2502 88C28.2502 89.472 29.7251 90.6667 31.5424 90.6667H68.4576C70.2749 90.6667 71.7498 89.472 71.7498 88C71.7498 86.528 70.2749 85.3334 68.4576 85.3334H62.8741L61.6231 71.9504H90.4003C95.6939 71.9504 100 68.4626 100 64.1746V26.5668C100 22.2788 95.6945 18.7908 90.4007 18.7908ZM93.4163 64.1748C93.4163 65.5223 92.0644 66.6173 90.4007 66.6173C84.9057 66.6173 11.9742 66.6173 9.5995 66.6173C7.93586 66.6173 6.58388 65.5222 6.58388 64.1748V26.5668C6.58388 25.2192 7.93586 24.1241 9.5995 24.1241H53.5097L45.9313 30.2839C41.0879 29.861 36.1268 31.1446 32.4403 34.1328C27.3238 38.2736 24.7823 51.3552 24.0279 56.9625C23.8006 58.6619 25.5803 60.0882 27.6581 59.901C34.7817 59.2735 50.7552 57.2231 55.8427 53.0887C59.4931 50.1316 61.1225 46.1289 60.5944 42.1609L82.9389 24.1239H90.4009C92.0646 24.1239 93.4166 25.219 93.4166 26.5666L93.4163 64.1748ZM56.2705 85.3335H43.7298L44.9808 71.9506H55.0194L56.2705 85.3335ZM84.8679 6.19203C86.3779 5.03648 88.79 5.06136 90.2603 6.25247C91.733 7.44536 91.7637 9.39896 90.3371 10.6223C68.944 27.8905 90.6167 10.3966 58.215 36.5524C56.9045 34.8425 55.0605 33.3165 52.8556 32.2112C68.2941 19.6615 54.3439 31.0006 84.8679 6.19203ZM31.119 54.159C31.7718 50.6391 34.0253 40.3888 37.0952 37.9033C40.9758 34.7563 47.2866 34.7435 51.1876 37.9033C55.0802 41.056 55.0625 46.1794 51.1876 49.3183C48.1053 51.815 35.4333 53.6359 31.119 54.159Z" fill="#F1A2C4"/>
</svg>
