<svg width="100" height="91" viewBox="0 0 100 91" fill="none" xmlns="http://www.w3.org/2000/svg">
<path d="M95.1172 0C93.451 0 6.3875 0 4.88281 0C2.19043 0 0 1.98599 0 4.42708V86.2396C0 88.6807 2.19043 90.6666 4.88281 90.6666H95.1172C97.8096 90.6666 100 88.6807 100 86.2396V4.42708C100 1.98599 97.8096 0 95.1172 0ZM94.1406 14.7592H40.8963L34.4939 5.3125H94.1406V14.7592ZM5.85938 85.3541V5.3125H27.6168L36.7615 18.8059C37.2945 19.5923 38.2395 20.0715 39.2576 20.0715H94.1404V85.3541H5.85938Z" fill="#F1A2C4"/>
<path d="M15.655 16.1736H23.2072C24.8251 16.1736 26.1369 14.9843 26.1369 13.5173C26.1369 12.0504 24.8251 10.8611 23.2072 10.8611H15.655C14.0371 10.8611 12.7253 12.0504 12.7253 13.5173C12.7253 14.9843 14.0371 16.1736 15.655 16.1736Z" fill="#F1A2C4"/>
<path d="M12.9891 30.9453V62.4832C12.9891 64.9076 15.1647 66.8801 17.8385 66.8801H52.5885C55.2625 66.8801 57.4381 64.9076 57.4381 62.4832V30.9453C57.4381 28.5209 55.2625 26.5483 52.5885 26.5483H17.8385C15.1647 26.5483 12.9891 28.5209 12.9891 30.9453ZM18.8485 31.8608H51.5787V61.5676H18.8485V31.8608Z" fill="#F1A2C4"/>
<path d="M42.99 42.8502C42.8693 42.7951 31.567 37.6341 31.4435 37.5857C28.3074 36.3591 24.8109 38.4472 24.8109 41.5407V51.8877C24.8109 54.9847 28.3111 57.0682 31.4439 55.8425C31.5701 55.7929 30.8013 56.1408 42.99 50.5781C46.4889 48.9815 46.4892 44.4475 42.99 42.8502ZM30.6703 50.253V43.1752L38.4246 46.714L30.6703 50.253Z" fill="#F1A2C4"/>
<path d="M85.2307 73.5649H14.7693C13.1514 73.5649 11.8397 74.7542 11.8397 76.2212C11.8397 77.6881 13.1514 78.8774 14.7693 78.8774H85.2307C86.8486 78.8774 88.1604 77.6881 88.1604 76.2212C88.1604 74.7542 86.8486 73.5649 85.2307 73.5649Z" fill="#F1A2C4"/>
<path d="M85.2307 26.9023H66.1703C64.5524 26.9023 63.2407 28.0916 63.2407 29.5586C63.2407 31.0256 64.5524 32.2149 66.1703 32.2149H85.2307C86.8487 32.2149 88.1604 31.0256 88.1604 29.5586C88.1604 28.0916 86.8487 26.9023 85.2307 26.9023Z" fill="#F1A2C4"/>
<path d="M85.2307 38.4575H66.1703C64.5524 38.4575 63.2407 39.6468 63.2407 41.1138C63.2407 42.5807 64.5524 43.77 66.1703 43.77H85.2307C86.8487 43.77 88.1604 42.5807 88.1604 41.1138C88.1604 39.6468 86.8487 38.4575 85.2307 38.4575Z" fill="#F1A2C4"/>
<path d="M85.2307 50.0122H66.1703C64.5524 50.0122 63.2407 51.2015 63.2407 52.6685C63.2407 54.1354 64.5524 55.3247 66.1703 55.3247H85.2307C86.8487 55.3247 88.1604 54.1354 88.1604 52.6685C88.1604 51.2015 86.8487 50.0122 85.2307 50.0122Z" fill="#F1A2C4"/>
<path d="M85.2307 61.5674H66.1703C64.5524 61.5674 63.2407 62.7567 63.2407 64.2236C63.2407 65.6906 64.5524 66.8799 66.1703 66.8799H85.2307C86.8487 66.8799 88.1604 65.6906 88.1604 64.2236C88.1604 62.7567 86.8487 61.5674 85.2307 61.5674Z" fill="#F1A2C4"/>
</svg>
