<?xml version="1.0" encoding="UTF-8"?>
<!DOCTYPE svg PUBLIC "-//W3C//DTD SVG 1.1//EN" "http://www.w3.org/Graphics/SVG/1.1/DTD/svg11.dtd">
<!-- Creator: CorelDRAW 2017 -->
<svg xmlns="http://www.w3.org/2000/svg" xml:space="preserve" width="343px" height="461px" version="1.1" style="shape-rendering:geometricPrecision; text-rendering:geometricPrecision; image-rendering:optimizeQuality; fill-rule:evenodd; clip-rule:evenodd"
viewBox="0 0 343 461"
 xmlns:xlink="http://www.w3.org/1999/xlink">
 <defs>
  <style type="text/css">
   <![CDATA[
    .fil0 {fill:white}
   ]]>
  </style>
 </defs>
 <g id="Слой_x0020_1">
  <metadata id="CorelCorpID_0Corel-Layer"/>
  <g id="_1546070593536">
   <path class="fil0" d="M316 461l-288 0c-15,0 -28,-12 -28,-27l0 -407c0,-15 12,-27 28,-27l288 0c15,0 28,12 28,27l0 406c0,15 -12,27 -28,27l0 0 0 0zm-288 -441c-4,0 -7,3 -7,7l0 406c0,4 3,7 7,7l288 0c4,0 7,-3 7,-7l0 -407c0,-4 -3,-7 -7,-7l-288 0 0 0 0 0 0 0zm247 303c0,-6 -5,-10 -10,-10l-121 0c-6,0 -10,4 -10,10 0,6 5,10 10,10l120 0c6,0 11,-4 11,-10l0 0 0 0zm0 62c0,-6 -5,-10 -10,-10l-121 0c-6,0 -10,4 -10,10 0,6 5,10 10,10l120 0c6,0 11,-4 11,-10l0 0 0 0zm0 -123c0,-6 -5,-10 -10,-10l-121 0c-6,0 -10,4 -10,10 0,6 5,10 10,10l120 0c6,1 11,-4 11,-10l0 0 0 0zm0 -61c0,-6 -5,-10 -10,-10l-121 0c-6,0 -10,4 -10,10 0,6 5,10 10,10l120 0c6,0 11,-4 11,-10l0 0 0 0zm-1 -61c0,-6 -4,-10 -10,-10l-120 0c-6,0 -10,4 -10,10 0,6 5,10 10,10l120 0c6,0 10,-4 10,-10zm0 -61c0,-6 -4,-10 -10,-10l-120 0c-6,0 -10,4 -10,10 0,6 5,10 10,10l120 0c6,1 10,-4 10,-10zm-194 18l26 -26c4,-4 4,-11 0,-15 -4,-4 -11,-4 -15,0l-19 18 -3 -3c-4,-4 -11,-4 -15,0 -4,4 -4,11 0,15l11 11c2,2 4,3 7,3 2,0 5,-1 7,-3l0 0zm0 63l26 -26c4,-4 4,-11 0,-15 -4,-4 -11,-4 -15,0l-19 18 -3 -3c-4,-4 -11,-4 -15,0 -4,4 -4,11 0,15l11 11c2,2 4,3 7,3l0 0c2,0 5,-1 7,-3l0 0zm0 61l26 -26c4,-4 4,-11 0,-15 -4,-4 -11,-4 -15,0l-19 18 -3 -3c-4,-4 -11,-4 -15,0 -4,4 -4,11 0,15l11 11c2,2 4,3 7,3l0 0c2,0 5,-1 7,-3l0 0zm0 61l26 -26c4,-4 4,-11 0,-15 -4,-4 -11,-4 -15,0l-19 18 -4 -3c-4,-4 -11,-4 -15,0 -4,4 -4,11 0,15l11 11c2,2 4,3 7,3l0 0c3,1 6,-1 8,-3l0 0 0 0zm0 61l26 -26c4,-4 4,-11 0,-15 -4,-4 -11,-4 -15,0l-19 18 -3 -3c-4,-4 -11,-4 -15,0 -4,4 -4,11 0,15l11 11c2,2 4,3 7,3l0 0c2,0 5,-1 7,-3l0 0zm0 61l26 -26c4,-4 4,-11 0,-15 -4,-4 -11,-4 -15,0l-19 18 -4 -3c-4,-4 -11,-4 -15,0 -4,4 -4,11 0,15l11 11c2,2 4,3 7,3 3,1 6,-1 8,-3l0 0 0 0z"/>
  </g>
  <g id="_1546070592416">
  </g>
  <g id="_1546070592448">
  </g>
  <g id="_1546070592000">
  </g>
  <g id="_1546070590848">
  </g>
  <g id="_1546070592128">
  </g>
  <g id="_1546070591616">
  </g>
  <g id="_1546070591264">
  </g>
  <g id="_1546070591104">
  </g>
  <g id="_1546070591520">
  </g>
  <g id="_1546070591072">
  </g>
  <g id="_1546070588096">
  </g>
  <g id="_1546070589312">
  </g>
  <g id="_1546070589024">
  </g>
  <g id="_1546070589824">
  </g>
  <g id="_1546070588320">
  </g>
 </g>
</svg>
