<?xml version="1.0" encoding="UTF-8"?>
<!DOCTYPE svg PUBLIC "-//W3C//DTD SVG 1.1//EN" "http://www.w3.org/Graphics/SVG/1.1/DTD/svg11.dtd">
<!-- Creator: CorelDRAW 2017 -->
<svg xmlns="http://www.w3.org/2000/svg" xml:space="preserve" width="343px" height="461px" version="1.1" style="shape-rendering:geometricPrecision; text-rendering:geometricPrecision; image-rendering:optimizeQuality; fill-rule:evenodd; clip-rule:evenodd"
viewBox="0 0 343 461"
 xmlns:xlink="http://www.w3.org/1999/xlink">
 <defs>
  <style type="text/css">
   <![CDATA[
    .fil0 {fill:white}
   ]]>
  </style>
 </defs>
 <g id="Слой_x0020_1">
  <metadata id="CorelCorpID_0Corel-Layer"/>
  <path class="fil0" d="M314 0l-286 0c-15,0 -27,12 -27,27l0 406c0,15 12,27 27,27l286 0c15,0 27,-12 27,-27l0 -406c0,-15 -12,-27 -27,-27zm7 434c0,4 -3,7 -7,7l-286 0c-4,0 -7,-3 -7,-7l0 -406c0,-4 3,-7 7,-7l286 0c4,0 7,3 7,7l0 406 0 0zm-47 -171c0,6 -4,10 -10,10l-128 0c-6,0 -10,-4 -10,-10 0,-6 4,-10 10,-10l128 0c5,0 10,4 10,10zm0 -61c0,6 -4,10 -10,10l-128 0c-6,0 -10,-4 -10,-10 0,-6 4,-10 10,-10l128 0c5,0 10,4 10,10zm-149 -61c0,-6 4,-10 10,-10l127 0c6,0 10,4 10,10 0,6 -4,10 -10,10l-127 0c-6,0 -10,-4 -10,-10l0 0 0 0zm0 -61c0,-6 4,-10 10,-10l127 0c6,0 10,4 10,10 0,6 -4,10 -10,10l-127 0c-6,1 -10,-4 -10,-10l0 0 0 0zm-37 0c0,6 -5,11 -11,11 -6,0 -11,-5 -11,-11 0,-6 5,-11 11,-11 6,0 11,5 11,11zm0 61c0,6 -5,11 -11,11 -6,0 -11,-5 -11,-11 0,-6 5,-11 11,-11 6,-1 11,4 11,11zm0 60c0,6 -5,11 -11,11 -6,0 -11,-5 -11,-11 0,-6 5,-11 11,-11 6,-1 11,4 11,11zm0 61c0,6 -5,11 -11,11 -6,0 -11,-5 -11,-11 0,-6 5,-11 11,-11 6,0 11,5 11,11z"/>
 </g>
</svg>
