<?xml version="1.0" encoding="UTF-8"?>
<!DOCTYPE svg PUBLIC "-//W3C//DTD SVG 1.1//EN" "http://www.w3.org/Graphics/SVG/1.1/DTD/svg11.dtd">
<!-- Creator: CorelDRAW 2017 -->
<svg xmlns="http://www.w3.org/2000/svg" xml:space="preserve" width="1476px" height="1654px" version="1.1" style="shape-rendering:geometricPrecision; text-rendering:geometricPrecision; image-rendering:optimizeQuality; fill-rule:evenodd; clip-rule:evenodd"
viewBox="0 0 1476 1653"
 xmlns:xlink="http://www.w3.org/1999/xlink">
 <defs>
  <style type="text/css">
   <![CDATA[
    .fil4 {fill:#F2A1C2;fill-opacity:0.784314}
    .fil3 {fill:#F1A1C3;fill-opacity:0.882353}
    .fil1 {fill:#F1A2C4;fill-opacity:0.894118}
    .fil0 {fill:#F1A1C3;fill-opacity:0.921569}
    .fil2 {fill:#F1A2C3;fill-opacity:0.929412}
   ]]>
  </style>
 </defs>
 <g id="Слой_x0020_1">
  <metadata id="CorelCorpID_0Corel-Layer"/>
  <g id="Слой_x0020_1_0">
   <path id="_2680487255200" class="fil0" d="M140 1379c-87,16 -134,-19 -137,-106 3,-87 50,-125 137,-106l0 -156 78 0 0 244c-25,0 -59,0 -84,3 -41,6 -41,28 3,34 34,6 72,3 106,-9 25,-9 28,-25 25,-47l87 0c12,106 -31,156 -137,147 -3,97 22,169 131,172l50 0c278,6 553,3 831,-3 53,0 116,3 141,-56 13,-31 13,-75 13,-109l0 -6c9,-397 9,-797 -3,-1193 -3,-53 -34,-84 -87,-87 -34,-3 -72,-3 -109,-3 -287,-9 -575,-12 -862,-3 -56,3 -87,28 -94,84 -9,56 -13,103 -9,159 0,6 0,6 -9,6 -28,-3 -69,0 -91,22 -13,16 -3,19 13,25 25,6 91,6 112,-6 12,-6 16,-16 22,-28 3,-9 3,-19 0,-28l87 0c6,81 -9,150 -103,159 -41,3 -150,6 -184,-6 -13,-3 -19,-9 -28,-16 -34,-34 -37,-91 -25,-137 6,-28 22,-47 50,-53 25,-6 53,-6 81,-6 -3,-53 -3,-150 22,-194 28,-56 75,-72 134,-69 72,3 147,0 219,0 256,0 516,3 772,3 62,0 109,-6 153,53 28,41 25,66 25,109 6,422 6,844 0,1265 0,84 9,156 -78,200 -19,9 -75,9 -97,9 -316,9 -625,9 -940,0 -72,0 -137,6 -184,-59 -19,-25 -22,-81 -22,-112 0,-16 -3,-34 -3,-50l0 -34 -3 -9z"/>
   <path id="_2680487256512" class="fil1" d="M749 629c-69,-25 -91,-81 -97,-150 -6,-78 34,-150 109,-175 6,-3 13,-3 19,-6 62,-9 147,3 191,50 41,44 37,109 25,162l0 3c-16,69 -56,106 -122,122 -9,3 -19,3 -28,3 -34,3 -66,-3 -97,-12l0 3zm141 -122c-47,72 -156,22 -131,-62 22,-78 156,-62 141,37 -3,9 -3,16 -9,25z"/>
   <path id="_2680487254304" class="fil2" d="M140 551l78 0 0 244c-16,0 -116,-6 -106,25 3,12 22,19 34,19 44,6 94,3 119,-41 9,-22 9,-22 37,-25 50,-3 66,13 56,62 -16,84 -62,81 -134,87 -41,3 -141,3 -172,-12 -53,-28 -53,-91 -37,-141 12,-41 41,-50 78,-56 19,-3 31,-3 50,-3l0 -156 -3 -3z"/>
   <polygon id="_2680487251968" class="fil3" points="512,901 962,901 962,989 512,989 "/>
   <polygon id="_2680487250720" class="fil4" points="1077,901 1155,901 1155,989 1077,989 "/>
   <polygon id="_2680487250528" class="fil3" points="512,1098 1155,1098 1155,1185 512,1185 "/>
  </g>
 </g>
</svg>
