<?xml version="1.0" encoding="UTF-8"?>
<!DOCTYPE svg PUBLIC "-//W3C//DTD SVG 1.1//EN" "http://www.w3.org/Graphics/SVG/1.1/DTD/svg11.dtd">
<!-- Creator: CorelDRAW 2017 -->
<svg xmlns="http://www.w3.org/2000/svg" xml:space="preserve" width="2457px" height="2474px" version="1.1" style="shape-rendering:geometricPrecision; text-rendering:geometricPrecision; image-rendering:optimizeQuality; fill-rule:evenodd; clip-rule:evenodd"
viewBox="0 0 2457 2475"
 xmlns:xlink="http://www.w3.org/1999/xlink">
 <defs>
  <style type="text/css">
   <![CDATA[
    .fil2 {fill:#FF47FF;fill-opacity:0.003922}
    .fil4 {fill:#FF66FF;fill-opacity:0.007843}
    .fil3 {fill:#F1A2C4;fill-opacity:0.901961}
    .fil1 {fill:#F1A2C3;fill-opacity:0.905882}
    .fil0 {fill:#F1A2C4;fill-opacity:0.925490}
   ]]>
  </style>
 </defs>
 <g id="Слой_x0020_1">
  <metadata id="CorelCorpID_0Corel-Layer"/>
  <g id="_2716380018896">
   <path class="fil0" d="M1565 13c194,19 347,106 469,259 66,84 103,200 113,306 25,250 -59,447 -253,606 -50,41 -128,69 -191,88 -141,44 -313,34 -450,-22 -106,-44 -222,-125 -284,-222 -91,-141 -103,-281 -91,-447 9,-163 63,-288 184,-397 94,-84 241,-156 363,-172 47,-6 94,-3 141,0zm94 584c-100,0 -203,0 -303,0 -3,-138 25,-263 88,-384 38,-72 81,-59 122,3 59,91 91,225 94,334 0,16 0,31 0,47zm-441 0c-69,0 -138,0 -206,0 13,-97 53,-203 119,-275 28,-28 66,-59 97,-88 19,-16 34,-31 53,-47 -31,122 -56,222 -63,347 0,22 0,41 0,63l0 0zm781 0c-66,0 -131,0 -194,0 3,-59 3,-138 -13,-197 -13,-63 -28,-125 -47,-184 44,19 53,28 88,59 72,66 88,100 131,184 22,44 31,88 34,138l0 0zm-988 116c69,0 138,0 206,0 -3,128 16,253 56,378l0 3c-122,-63 -197,-150 -244,-278 -13,-34 -19,-53 -22,-91 0,-3 0,-6 0,-13l3 0zm341 0c100,0 203,0 303,0 3,125 -22,253 -78,366 -19,41 -59,100 -109,59 -16,-13 -25,-28 -34,-47 -59,-125 -88,-238 -84,-378l3 0zm450 0c66,0 131,0 194,0 -16,119 -59,238 -156,313 -31,25 -66,47 -97,69 41,-125 59,-244 59,-378l0 -3 0 0z"/>
  </g>
  <g id="_2716380018800">
   <path class="fil1" d="M309 922c-28,-275 -22,-403 81,-663l3 -6c-56,19 -109,44 -169,63 -22,6 -53,16 -75,16 -78,-3 -113,-103 0,-138 116,-34 213,-72 322,-122 69,-31 116,-3 141,63 25,69 50,131 72,200 13,38 47,144 50,178 3,100 -109,88 -141,22 -16,-38 -31,-97 -44,-138 -13,-38 -22,-78 -34,-116 -3,-6 -3,3 -3,9 -25,103 -56,206 -72,313 -19,144 0,303 41,441 13,44 41,122 -28,138 -44,9 -81,-19 -97,-59 -19,-47 -41,-150 -44,-203l-3 3z"/>
  </g>
  <g id="_2716380017136">
   <path class="fil2" d="M1815 256c13,0 19,6 19,19 0,-13 -6,-19 -19,-19z"/>
  </g>
  <g id="_2716380018352">
   <path class="fil2" d="M1893 335c13,0 19,6 19,19 0,-13 -6,-19 -19,-19z"/>
  </g>
  <g id="_2716380015056">
   <path class="fil3" d="M2156 1553c156,-31 266,13 291,184 13,103 -38,197 -134,241 -47,22 -97,41 -144,63 -178,75 -353,150 -534,219 -50,19 -94,34 -141,59 -16,6 -28,16 -44,22 -91,41 -194,81 -288,113 -91,25 -209,6 -294,-31 -53,-25 -103,-50 -156,-75 -72,-31 -134,-66 -206,-94 -56,-22 -144,-53 -134,-128 6,-59 69,-69 116,-50 34,13 75,38 109,53 100,47 191,91 288,144 47,25 78,31 128,41 56,9 88,3 144,-13 63,-16 109,-34 166,-59 269,-119 541,-234 809,-347 50,-22 209,-75 159,-156 -28,-47 -88,-50 -131,-31 -31,13 -59,28 -91,41 -56,22 -109,44 -166,69 -141,59 -278,119 -413,181 -91,41 -181,41 -272,0 -94,-41 -188,-81 -281,-125 -44,-19 -100,-53 -91,-109 13,-63 81,-53 125,-38 72,25 156,63 225,94 59,25 163,94 216,28 31,-41 13,-88 -28,-113 -31,-19 -88,-41 -122,-56 -138,-63 -275,-122 -413,-181 -69,-28 -122,-34 -197,-28 -131,9 -241,66 -334,156 -3,233 -6,465 -16,697 0,3 -1,2 -7,2 -24,1 -50,3 -74,3 -37,0 -73,0 -110,-2 -32,-2 -63,-1 -95,-1 -5,0 -3,1 -3,-9 0,-28 -1,-56 0,-84l0 -7c0,-10 1,-19 1,-29 34,0 65,-2 99,0 25,1 43,1 68,-5 4,-1 3,-9 3,-14 2,-25 0,-61 0,-87 0,-7 0,-14 0,-21 0,-178 3,-353 9,-531 191,-188 416,-256 678,-191 38,9 78,28 116,44 163,69 325,144 484,225 34,19 59,44 78,78 16,25 19,41 28,69 13,38 63,9 84,3 91,-34 181,-72 272,-109 13,-6 47,-22 25,-38 -25,-13 -50,9 -72,19 -47,22 -172,84 -219,84 -88,3 -100,-106 3,-159 44,-22 97,-38 144,-56 103,-44 159,-56 259,3 28,16 53,34 81,50l0 -6z"/>
  </g>
  <g id="_2716380015664">
   <path class="fil4" d="M1853 1475c0,13 -6,19 -19,19 0,-13 6,-19 19,-19z"/>
  </g>
  <g id="_2716380014992">
   <path class="fil4" d="M565 2266c13,0 19,6 19,19 -13,0 -19,-6 -19,-19z"/>
  </g>
 </g>
</svg>
