<svg width="100" height="91" viewBox="0 0 100 91" fill="none" xmlns="http://www.w3.org/2000/svg">
<path d="M85.3474 13.285C65.8125 -4.42693 34.1907 -4.42976 14.6527 13.285C-4.88276 30.997 -4.88569 59.6671 14.6527 77.3817C34.1875 95.0936 65.8094 95.0963 85.3474 77.3817C104.883 59.6698 104.886 30.9996 85.3474 13.285ZM83.2581 70.921C80.9225 69.0273 78.4241 67.3516 75.7907 65.9074C77.5313 60.4561 78.5625 54.4573 78.8062 48.2216H93.5031C92.8386 56.6268 89.2766 64.5113 83.2581 70.921ZM6.49683 48.2216H21.1936C21.4374 54.4573 22.4686 60.4561 24.2091 65.9074C21.5757 67.3516 19.0774 69.0273 16.7418 70.921C10.7233 64.5113 7.16152 56.6268 6.49683 48.2216ZM16.742 19.7458C19.0776 21.6394 21.5759 23.3152 24.2093 24.7593C22.4688 30.2107 21.4376 36.2094 21.1938 42.4451H6.49683C7.16152 34.0401 10.7233 26.1556 16.742 19.7458ZM46.8145 25.3563C41.6192 25.0194 36.6098 23.8592 31.9657 21.9453C34.6666 15.6394 39.6458 8.07611 46.8145 6.2018V25.3563ZM46.8145 31.1437V42.4453H27.5675C27.7881 37.1704 28.6124 32.1051 29.9833 27.4706C35.2609 29.5623 40.9367 30.8115 46.8145 31.1437ZM46.8145 48.2216V59.5232C40.9367 59.8554 35.2609 61.1045 29.9833 63.1963C28.6124 58.5618 27.7881 53.4965 27.5675 48.2216H46.8145ZM46.8145 65.3106V84.4649C39.6462 82.5906 34.667 75.0282 31.9657 68.7216C36.6098 66.8076 41.6192 65.6475 46.8145 65.3106ZM53.1855 65.3106C58.3809 65.6475 63.3903 66.8076 68.0344 68.7216C65.3332 75.0277 60.3543 82.5906 53.1855 84.4649V65.3106ZM53.1855 59.5232V48.2216H72.4325C72.212 53.4965 71.3877 58.5618 70.0167 63.1963C64.7392 61.1045 59.0634 59.8554 53.1855 59.5232ZM53.1855 42.4453V31.1437C59.0634 30.8115 64.7392 29.5623 70.0167 27.4706C71.3877 32.1051 72.212 37.1704 72.4325 42.4453H53.1855ZM53.1855 25.3563V6.20198C60.3543 8.07629 65.3334 15.6395 68.0344 21.9455C63.3903 23.8592 58.3809 25.0194 53.1855 25.3563ZM67.4942 9.08555C71.5719 10.7045 75.3762 12.8998 78.7865 15.6236C77.1632 16.9213 75.4504 18.0979 73.6618 19.1502C72.0734 15.5845 70.0444 12.1193 67.4942 9.08555ZM26.3381 19.1502C24.5495 18.0979 22.8368 16.9213 21.2133 15.6236C24.6237 12.8998 28.428 10.7045 32.5057 9.08555C29.9554 12.1197 27.9264 15.5849 26.3381 19.1502ZM26.3383 71.5167C27.9264 75.0822 29.9558 78.5475 32.5059 81.5813C28.4282 79.9623 24.6238 77.7671 21.2135 75.0433C22.8368 73.7456 24.5497 72.569 26.3383 71.5167ZM73.6618 71.5167C75.4504 72.569 77.1632 73.7456 78.7865 75.0431C75.3762 77.7669 71.5719 79.9622 67.4942 81.5812C70.0442 78.5477 72.0734 75.0824 73.6618 71.5167ZM78.8064 42.4453C78.5627 36.2096 77.5315 30.2107 75.7909 24.7595C78.4243 23.3153 80.9225 21.6395 83.2583 19.7459C89.2768 26.1556 92.8386 34.0401 93.5033 42.4453H78.8064Z" fill="#F1A2C4"/>
</svg>
