<?xml version="1.0" encoding="UTF-8"?>
<!DOCTYPE svg PUBLIC "-//W3C//DTD SVG 1.1//EN" "http://www.w3.org/Graphics/SVG/1.1/DTD/svg11.dtd">
<!-- Creator: CorelDRAW 2017 -->
<svg xmlns="http://www.w3.org/2000/svg" xml:space="preserve" width="448px" height="253px" version="1.1" style="shape-rendering:geometricPrecision; text-rendering:geometricPrecision; image-rendering:optimizeQuality; fill-rule:evenodd; clip-rule:evenodd"
viewBox="0 0 448 253"
 xmlns:xlink="http://www.w3.org/1999/xlink">
 <defs>
  <style type="text/css">
   <![CDATA[
    .fil0 {fill:#598FFC;fill-rule:nonzero}
   ]]>
  </style>
 </defs>
 <g id="Слой_x0020_1">
  <metadata id="CorelCorpID_0Corel-Layer"/>
  <path class="fil0" d="M431 0c5,0 9,2 12,5 3,3 5,7 5,11l0 238 -45 0c-4,0 -8,-2 -11,-5 -3,-3 -5,-7 -5,-12l0 -237 45 0zm-431 169l0 -85c1,-23 9,-43 25,-59 17,-17 37,-25 61,-25l91 0 0 253 -91 0c-24,0 -44,-8 -61,-25 -16,-16 -25,-36 -25,-59zm280 -169l91 0 0 253 -91 0c-24,0 -44,-8 -61,-25 -17,-17 -25,-37 -25,-61l0 -80c0,-24 8,-45 25,-61 17,-17 37,-25 61,-25zm-25 87l0 80c0,7 2,13 7,18 5,5 11,7 18,7l30 0 0 -131 -30 0c-7,0 -13,2 -18,7 -5,5 -7,11 -7,18zm-193 0l0 80c0,7 2,13 7,18 5,5 11,7 18,7l30 0 0 -131 -30 0c-7,0 -13,2 -18,7 -5,5 -7,11 -7,18z"/>
 </g>
</svg>
