<?xml version="1.0" encoding="UTF-8"?>
<!DOCTYPE svg PUBLIC "-//W3C//DTD SVG 1.1//EN" "http://www.w3.org/Graphics/SVG/1.1/DTD/svg11.dtd">
<!-- Creator: CorelDRAW 2017 -->
<svg xmlns="http://www.w3.org/2000/svg" xml:space="preserve" width="1831px" height="1665px" version="1.1" style="shape-rendering:geometricPrecision; text-rendering:geometricPrecision; image-rendering:optimizeQuality; fill-rule:evenodd; clip-rule:evenodd"
viewBox="0 0 1831 1666"
 xmlns:xlink="http://www.w3.org/1999/xlink">
 <defs>
  <style type="text/css">
   <![CDATA[
    .fil4 {fill:#F0A1C2;fill-opacity:0.772549}
    .fil2 {fill:#F1A2C3;fill-opacity:0.827451}
    .fil3 {fill:#F1A2C3;fill-opacity:0.843137}
    .fil1 {fill:#F2A2C4;fill-opacity:0.854902}
    .fil0 {fill:#F0A1C3;fill-opacity:0.929412}
   ]]>
  </style>
 </defs>
 <g id="Слой_x0020_1">
  <metadata id="CorelCorpID_0Corel-Layer"/>
  <g id="_2680492134448">
   <path class="fil0" d="M1817 23c13,422 13,847 0,1269 -216,19 -434,25 -653,19 0,34 0,72 0,106 38,0 147,-3 178,9 69,25 56,109 56,169 0,22 0,44 0,69 -319,0 -638,0 -956,0 -3,-38 -3,-181 16,-209 25,-38 69,-34 109,-34 38,0 75,0 113,0 0,-34 0,-72 0,-106 -225,6 -450,0 -675,-19 0,-428 0,-856 0,-1281 0,-9 -3,-6 13,-6 600,-9 1203,0 1807,19l-6 -3zm-1728 69c550,0 1100,0 1650,0 0,300 0,600 0,897 -550,0 -1100,0 -1650,0 0,-300 0,-600 0,-897zm0 988c550,0 1100,0 1650,0 0,50 0,97 0,147 -550,0 -1100,0 -1650,0 0,-50 0,-97 0,-147zm675 234c103,0 209,0 313,0 0,34 0,72 0,106 -103,0 -209,0 -313,0 0,-34 0,-72 0,-106zm484 203c22,0 34,6 47,22 9,13 9,19 13,34 -13,6 -69,3 -88,3 -209,0 -419,0 -628,0 -16,0 -41,3 -56,-3 3,-31 25,-63 59,-66 22,0 56,0 81,0 191,0 384,3 575,9l-3 0z"/>
  </g>
  <g id="_2680492134896">
   <path class="fil1" d="M854 876c-6,19 -19,38 -38,47 -25,9 -63,-6 -69,-34 -6,-28 9,-75 19,-103 44,-100 72,-203 113,-303 28,-66 53,-125 75,-194 13,-38 31,-88 78,-88 69,0 41,103 28,141 -28,81 -69,163 -100,247 -38,97 -72,194 -109,291l3 -3z"/>
  </g>
  <g id="_2680492135248">
   <path class="fil2" d="M567 554c28,41 56,81 84,122 19,28 38,59 34,94 -3,31 -31,28 -53,22 -44,-9 -56,-38 -84,-69 -22,-25 -41,-47 -63,-69 -59,-66 -63,-128 -6,-197 19,-22 38,-41 56,-66 19,-22 34,-44 50,-66 19,-22 56,-22 78,-6 38,25 13,78 -9,106 -6,9 -16,19 -22,28 -25,31 -47,66 -69,100l3 0z"/>
  </g>
  <g id="_2680492132752">
   <path class="fil3" d="M1351 457c34,38 53,81 38,134 -3,9 -6,16 -9,25 -16,28 -34,47 -56,69 -22,25 -41,50 -63,75 -25,28 -44,38 -81,38 -9,0 -16,-3 -25,-9 -19,-22 0,-72 16,-94 25,-34 50,-66 72,-100 9,-13 16,-25 25,-38 -28,-41 -56,-81 -84,-122 -19,-25 -47,-72 -28,-103 16,-31 75,-13 94,6 13,13 28,34 41,50l3 3c19,22 41,44 59,66l0 0z"/>
  </g>
  <g id="_2680492132912">
   <path class="fil4" d="M1542 1107c28,0 59,0 88,0 0,28 0,59 0,88 -28,0 -59,0 -88,0 0,-28 0,-59 0,-88z"/>
  </g>
 </g>
</svg>
